<svg width="25" height="24" viewBox="0 0 25 24" fill="none" xmlns="http://www.w3.org/2000/svg">
<path d="M12.4188 0C5.84676 0 0.5 5.38316 0.5 12C0.5 18.6168 5.84676 24 12.4188 24C18.9909 24 24.3377 18.6168 24.3377 12C24.3377 5.38316 18.9909 0 12.4188 0ZM23.0375 12C23.0375 13.0296 22.8917 14.0255 22.6207 14.9685H18.1957C18.2923 13.9963 18.3475 13.0009 18.3475 12.0055C18.3475 11.0102 18.2923 10.0149 18.1957 9.04265H22.624C22.8929 9.98228 23.0375 10.9744 23.0375 12ZM22.078 7.56128H18.0118C17.6908 5.47198 17.1382 3.55784 16.3636 2.0745C18.8943 3.09771 20.9462 5.07462 22.078 7.56128ZM16.8714 12.0055C16.8714 13.0333 16.8162 14.0194 16.7197 14.9685H8.19931C8.10277 14.0194 8.04758 13.0333 8.04758 12.0055C8.04758 10.9777 8.10277 9.9917 8.19931 9.04265H16.7197C16.8162 9.99177 16.8714 10.9778 16.8714 12.0055ZM14.209 1.46174C15.2539 2.63569 16.0905 4.82885 16.5312 7.56121H8.39239C8.83517 4.81583 9.67763 2.61461 10.7295 1.44485C11.2798 1.3559 11.8439 1.30897 12.4188 1.30897C13.0289 1.30904 13.6268 1.36186 14.209 1.46174ZM8.57715 2.03333C7.79132 3.52236 7.2321 5.45248 6.9118 7.56128H2.75966C3.90675 5.04092 5.99901 3.04417 8.57715 2.03333ZM6.72328 14.9685H2.21703C1.94594 14.0256 1.80019 13.0297 1.80019 12C1.80019 10.9744 1.9447 9.98221 2.21371 9.04265H6.72789C6.63129 10.0149 6.57616 11.0102 6.57616 12.0055C6.57616 13.0009 6.63129 13.9962 6.72328 14.9685ZM2.76479 16.4499H6.9118C7.23484 18.553 7.79268 20.4786 8.57539 21.9659C6.00187 20.9564 3.91279 18.9644 2.76479 16.4499ZM10.7183 22.5532C9.67171 21.3804 8.83361 19.1855 8.39239 16.4499H16.5311C16.092 19.1724 15.2598 21.3594 14.2203 22.5364C13.6345 22.6376 13.0327 22.691 12.4187 22.691C11.84 22.691 11.2722 22.6434 10.7183 22.5532ZM16.3766 21.9201C17.1469 20.4391 17.6966 18.5316 18.0164 16.4499H22.0728C20.9419 18.9269 18.8976 20.8969 16.3766 21.9201Z" fill="white"/>
</svg>
