<svg width="24" height="24" viewBox="0 0 24 24" fill="none" xmlns="http://www.w3.org/2000/svg">
<path d="M3.6 10.4805C4.92375 10.4805 6 9.36234 6 7.98701C6 6.61169 4.92375 5.49351 3.6 5.49351C2.27625 5.49351 1.2 6.61169 1.2 7.98701C1.2 9.36234 2.27625 10.4805 3.6 10.4805ZM20.4 10.4805C21.7238 10.4805 22.8 9.36234 22.8 7.98701C22.8 6.61169 21.7238 5.49351 20.4 5.49351C19.0763 5.49351 18 6.61169 18 7.98701C18 9.36234 19.0763 10.4805 20.4 10.4805ZM21.6 11.7273H19.2C18.54 11.7273 17.9438 12.0039 17.5088 12.4519C19.02 13.313 20.0925 14.8675 20.325 16.7143H22.8C23.4638 16.7143 24 16.1571 24 15.4675V14.2208C24 12.8455 22.9238 11.7273 21.6 11.7273ZM12 11.7273C14.3213 11.7273 16.2 9.77533 16.2 7.36364C16.2 4.95195 14.3213 3 12 3C9.67875 3 7.8 4.95195 7.8 7.36364C7.8 9.77533 9.67875 11.7273 12 11.7273ZM14.88 12.974H14.5688C13.7888 13.3636 12.9225 13.5974 12 13.5974C11.0775 13.5974 10.215 13.3636 9.43125 12.974H9.12C6.735 12.974 4.8 14.9844 4.8 17.4623V18.5844C4.8 19.6169 5.60625 20.4545 6.6 20.4545H17.4C18.3938 20.4545 19.2 19.6169 19.2 18.5844V17.4623C19.2 14.9844 17.265 12.974 14.88 12.974ZM6.49125 12.4519C6.05625 12.0039 5.46 11.7273 4.8 11.7273H2.4C1.07625 11.7273 0 12.8455 0 14.2208V15.4675C0 16.1571 0.53625 16.7143 1.2 16.7143H3.67125C3.9075 14.8675 4.98 13.313 6.49125 12.4519Z" fill="#B45FFF"/>
</svg>
