<svg width="349" height="39" viewBox="0 0 349 39" fill="none" xmlns="http://www.w3.org/2000/svg">
<path fill-rule="evenodd" clip-rule="evenodd" d="M57.9128 8.16892C57.9128 11.8073 54.9664 14.7568 51.3318 14.7568C47.6972 14.7568 44.7508 11.8073 44.7508 8.16892C44.7508 4.53056 47.6972 1.58108 51.3318 1.58108C54.9664 1.58108 57.9128 4.53056 57.9128 8.16892ZM59.4922 8.16892C59.4922 12.6805 55.8387 16.3378 51.3318 16.3378C46.8249 16.3378 43.1713 12.6805 43.1713 8.16892C43.1713 3.65735 46.8249 0 51.3318 0C55.8387 0 59.4922 3.65735 59.4922 8.16892ZM13.4923 11.1531L12.1973 12.4076C12.0822 12.5191 12.0797 12.6282 12.1897 12.7347L18.6655 19.0082L12.2342 25.2385C12.1191 25.3501 12.1165 25.4591 12.2265 25.5656L13.464 26.7644C13.5739 26.871 13.6865 26.8685 13.8016 26.757L20.2329 20.5266L26.709 26.8003C26.8189 26.9068 26.9315 26.9044 27.0466 26.7928L28.3416 25.5383C28.4567 25.4268 28.4593 25.3178 28.3493 25.2112L21.8733 18.9376L28.3056 12.7063C28.4207 12.5948 28.4232 12.4858 28.3132 12.3792L27.0758 11.1804C26.9658 11.0739 26.8532 11.0764 26.7381 11.1879L20.3058 17.4191L13.83 11.1457C13.72 11.0391 13.6074 11.0416 13.4923 11.1531ZM90.8402 11.1531L89.587 12.4076C89.4756 12.5191 89.4731 12.6282 89.5796 12.7347L95.8465 19.0082L89.6227 25.2385C89.5113 25.3501 89.5088 25.4591 89.6152 25.5656L90.8128 26.7644C90.9192 26.871 91.0281 26.8685 91.1395 26.757L97.3634 20.5266L103.631 26.8003C103.737 26.9068 103.846 26.9044 103.957 26.7928L105.211 25.5383C105.322 25.4268 105.324 25.3178 105.218 25.2112L98.9508 18.9376L105.176 12.7063C105.287 12.5948 105.289 12.4858 105.183 12.3792L103.986 11.1804C103.879 11.0739 103.77 11.0764 103.659 11.1879L97.4339 17.4191L91.167 11.1457C91.0605 11.0391 90.9516 11.0416 90.8402 11.1531ZM128.724 14.7568C132.359 14.7568 135.305 11.8073 135.305 8.16892C135.305 4.53056 132.359 1.58108 128.724 1.58108C125.09 1.58108 122.143 4.53056 122.143 8.16892C122.143 11.8073 125.09 14.7568 128.724 14.7568ZM128.724 16.3378C133.231 16.3378 136.885 12.6805 136.885 8.16892C136.885 3.65735 133.231 0 128.724 0C124.217 0 120.564 3.65735 120.564 8.16892C120.564 12.6805 124.217 16.3378 128.724 16.3378ZM154.259 0.878378H165.953V6.14865H163.806L166.403 10.5405L169 6.14865H166.853V0H154.259V0.878378ZM3.0467 38.1216L14.7414 38.1216V39H2.14711L2.14711 32.8513H0L2.59691 28.4595L5.19381 32.8513H3.0467L3.0467 38.1216ZM72.2708 33.3847V34.0539H74.3082V33.5833C74.3082 33.0187 74.4157 32.569 74.6305 32.2344C74.8522 31.8998 75.2854 31.478 75.9299 30.9691C76.6852 30.3766 77.2154 29.8955 77.5203 29.5261C77.8322 29.1566 78.0643 28.7697 78.2168 28.3653C78.3692 27.954 78.4455 27.487 78.4455 26.9641C78.4455 25.786 78.047 24.8623 77.25 24.1931C76.4531 23.5238 75.3755 23.1892 74.0172 23.1892C72.4094 23.1892 70.9021 23.5831 69.4953 24.3708L70.3685 26.2112C70.9021 25.9463 71.4496 25.7198 72.0109 25.5315C72.5723 25.3433 73.1821 25.2492 73.8405 25.2492C74.5681 25.2492 75.126 25.406 75.5141 25.7198C75.9022 26.0335 76.0962 26.4831 76.0962 27.0687C76.0962 27.5706 75.9749 28.0028 75.7324 28.3653C75.4967 28.7279 74.9666 29.2368 74.1419 29.8921C73.4489 30.4358 72.9638 30.9621 72.6866 31.471C72.4094 31.9799 72.2708 32.6178 72.2708 33.3847ZM73.3727 35.8106C72.354 35.8106 71.8446 36.337 71.8446 37.3896C71.8446 37.8985 71.9763 38.2959 72.2396 38.5817C72.503 38.8606 72.8806 39 73.3727 39C73.8647 39 74.2424 38.8571 74.5058 38.5713C74.776 38.2785 74.9112 37.8846 74.9112 37.3896C74.9112 36.8877 74.7795 36.5008 74.5161 36.2289C74.2528 35.9501 73.8716 35.8106 73.3727 35.8106ZM149.3 34.0539V33.3847C149.3 32.6178 149.447 31.9799 149.74 31.471C150.034 30.9621 150.548 30.4358 151.281 29.8921C152.154 29.2368 152.716 28.7279 152.965 28.3653C153.222 28.0028 153.351 27.5706 153.351 27.0687C153.351 26.4831 153.145 26.0335 152.734 25.7198C152.323 25.406 151.733 25.2492 150.962 25.2492C150.265 25.2492 149.619 25.3433 149.025 25.5315C148.431 25.7198 147.851 25.9463 147.286 26.2112L146.361 24.3708C147.851 23.5831 149.447 23.1892 151.149 23.1892C152.587 23.1892 153.728 23.5238 154.572 24.1931C155.416 24.8623 155.838 25.786 155.838 26.9641C155.838 27.487 155.757 27.954 155.596 28.3653C155.434 28.7697 155.189 29.1566 154.858 29.5261C154.536 29.8955 153.974 30.3766 153.174 30.9691C152.492 31.478 152.033 31.8998 151.799 32.2344C151.571 32.569 151.457 33.0187 151.457 33.5833V34.0539H149.3ZM148.849 37.3896C148.849 36.337 149.388 35.8106 150.467 35.8106C150.995 35.8106 151.399 35.9501 151.678 36.2289C151.956 36.5008 152.096 36.8877 152.096 37.3896C152.096 37.8846 151.953 38.2785 151.667 38.5713C151.388 38.8571 150.988 39 150.467 39C149.946 39 149.546 38.8606 149.267 38.5817C148.988 38.2959 148.849 37.8985 148.849 37.3896ZM237.913 8.16892C237.913 11.8073 234.966 14.7568 231.332 14.7568C227.697 14.7568 224.751 11.8073 224.751 8.16892C224.751 4.53056 227.697 1.58108 231.332 1.58108C234.966 1.58108 237.913 4.53056 237.913 8.16892ZM239.492 8.16892C239.492 12.6805 235.839 16.3378 231.332 16.3378C226.825 16.3378 223.171 12.6805 223.171 8.16892C223.171 3.65735 226.825 0 231.332 0C235.839 0 239.492 3.65735 239.492 8.16892ZM193.492 11.1531L192.197 12.4076C192.082 12.5191 192.08 12.6282 192.19 12.7347L198.666 19.0082L192.234 25.2385C192.119 25.3501 192.117 25.4591 192.227 25.5656L193.464 26.7644C193.574 26.871 193.686 26.8685 193.802 26.757L200.233 20.5266L206.709 26.8003C206.819 26.9068 206.932 26.9044 207.047 26.7928L208.342 25.5383C208.457 25.4268 208.459 25.3178 208.349 25.2112L201.873 18.9376L208.306 12.7063C208.421 12.5948 208.423 12.4858 208.313 12.3792L207.076 11.1804C206.966 11.0739 206.853 11.0764 206.738 11.1879L200.306 17.4191L193.83 11.1457C193.72 11.0391 193.607 11.0416 193.492 11.1531ZM270.84 11.1531L269.587 12.4076C269.476 12.5191 269.473 12.6282 269.58 12.7347L275.847 19.0082L269.623 25.2385C269.511 25.3501 269.509 25.4591 269.615 25.5656L270.813 26.7644C270.919 26.871 271.028 26.8685 271.14 26.757L277.363 20.5266L283.63 26.8003C283.737 26.9068 283.846 26.9044 283.957 26.7928L285.211 25.5383C285.322 25.4268 285.324 25.3178 285.218 25.2112L278.951 18.9376L285.176 12.7063C285.287 12.5948 285.289 12.4858 285.183 12.3792L283.986 11.1804C283.879 11.0739 283.77 11.0764 283.659 11.1879L277.434 17.4191L271.167 11.1457C271.061 11.0391 270.952 11.0416 270.84 11.1531ZM308.724 14.7568C312.359 14.7568 315.305 11.8073 315.305 8.16892C315.305 4.53056 312.359 1.58108 308.724 1.58108C305.09 1.58108 302.143 4.53056 302.143 8.16892C302.143 11.8073 305.09 14.7568 308.724 14.7568ZM308.724 16.3378C313.231 16.3378 316.885 12.6805 316.885 8.16892C316.885 3.65735 313.231 0 308.724 0C304.217 0 300.564 3.65735 300.564 8.16892C300.564 12.6805 304.217 16.3378 308.724 16.3378ZM334.259 0.878378H345.953V6.14865H343.806L346.403 10.5405L349 6.14865H346.853V0H334.259V0.878378ZM183.047 38.1216L194.741 38.1216V39H182.147V32.8513H180L182.597 28.4595L185.194 32.8513H183.047V38.1216ZM252.271 33.3847V34.0539H254.308V33.5833C254.308 33.0187 254.416 32.569 254.63 32.2344C254.852 31.8998 255.285 31.478 255.93 30.9691C256.685 30.3766 257.215 29.8955 257.52 29.5261C257.832 29.1566 258.064 28.7697 258.217 28.3653C258.369 27.954 258.445 27.487 258.445 26.9641C258.445 25.786 258.047 24.8623 257.25 24.1931C256.453 23.5238 255.375 23.1892 254.017 23.1892C252.409 23.1892 250.902 23.5831 249.495 24.3708L250.369 26.2112C250.902 25.9463 251.45 25.7198 252.011 25.5315C252.572 25.3433 253.182 25.2492 253.84 25.2492C254.568 25.2492 255.126 25.406 255.514 25.7198C255.902 26.0335 256.096 26.4831 256.096 27.0687C256.096 27.5706 255.975 28.0028 255.732 28.3653C255.497 28.7279 254.967 29.2368 254.142 29.8921C253.449 30.4358 252.964 30.9621 252.687 31.471C252.409 31.9799 252.271 32.6178 252.271 33.3847ZM253.373 35.8106C252.354 35.8106 251.845 36.337 251.845 37.3896C251.845 37.8985 251.976 38.2959 252.24 38.5817C252.503 38.8606 252.881 39 253.373 39C253.865 39 254.242 38.8571 254.506 38.5713C254.776 38.2785 254.911 37.8846 254.911 37.3896C254.911 36.8877 254.779 36.5008 254.516 36.2289C254.253 35.9501 253.872 35.8106 253.373 35.8106ZM329.3 34.0539V33.3847C329.3 32.6178 329.447 31.9799 329.74 31.471C330.034 30.9621 330.548 30.4358 331.281 29.8921C332.154 29.2368 332.716 28.7279 332.965 28.3653C333.222 28.0028 333.351 27.5706 333.351 27.0687C333.351 26.4831 333.145 26.0335 332.734 25.7198C332.323 25.406 331.733 25.2492 330.962 25.2492C330.265 25.2492 329.619 25.3433 329.025 25.5315C328.431 25.7198 327.851 25.9463 327.286 26.2112L326.361 24.3708C327.851 23.5831 329.447 23.1892 331.149 23.1892C332.587 23.1892 333.728 23.5238 334.572 24.1931C335.416 24.8623 335.838 25.786 335.838 26.9641C335.838 27.487 335.757 27.954 335.596 28.3653C335.434 28.7697 335.189 29.1566 334.858 29.5261C334.536 29.8955 333.974 30.3766 333.174 30.9691C332.492 31.478 332.033 31.8998 331.799 32.2344C331.571 32.569 331.457 33.0187 331.457 33.5833V34.0539H329.3ZM328.849 37.3896C328.849 36.337 329.388 35.8106 330.467 35.8106C330.995 35.8106 331.399 35.9501 331.678 36.2289C331.956 36.5008 332.096 36.8877 332.096 37.3896C332.096 37.8846 331.953 38.2785 331.667 38.5713C331.388 38.8571 330.988 39 330.467 39C329.946 39 329.546 38.8606 329.267 38.5817C328.988 38.2959 328.849 37.8985 328.849 37.3896Z" fill="#B45FFF"/>
</svg>
