<svg width="237" height="24" viewBox="0 0 237 24" fill="none" xmlns="http://www.w3.org/2000/svg">
<path d="M132.242 17.0859C132.471 17.0859 132.693 17.0703 132.906 17.0391C133.12 17.0026 133.289 16.9661 133.414 16.9297V17.9219C133.273 17.9896 133.065 18.0443 132.789 18.0859C132.518 18.1328 132.273 18.1562 132.055 18.1562C130.398 18.1562 129.57 17.2839 129.57 15.5391V10.4453H128.344V9.82031L129.57 9.28125L130.117 7.45312H130.867V9.4375H133.352V10.4453H130.867V15.4844C130.867 16 130.99 16.3958 131.234 16.6719C131.479 16.9479 131.815 17.0859 132.242 17.0859Z" fill="white"/>
<path d="M120.867 9.4375V14.9922C120.867 15.6901 121.026 16.2109 121.344 16.5547C121.661 16.8984 122.159 17.0703 122.836 17.0703C123.732 17.0703 124.385 16.8255 124.797 16.3359C125.214 15.8464 125.422 15.0469 125.422 13.9375V9.4375H126.719V18H125.648L125.461 16.8516H125.391C125.125 17.2734 124.755 17.5964 124.281 17.8203C123.812 18.0443 123.276 18.1562 122.672 18.1562C121.63 18.1562 120.849 17.9089 120.328 17.4141C119.812 16.9193 119.555 16.1276 119.555 15.0391V9.4375H120.867Z" fill="white"/>
<path d="M117.367 13.7109C117.367 15.1068 117.016 16.1979 116.312 16.9844C115.609 17.7656 114.638 18.1562 113.398 18.1562C112.633 18.1562 111.953 17.9766 111.359 17.6172C110.766 17.2578 110.307 16.7422 109.984 16.0703C109.661 15.3984 109.5 14.612 109.5 13.7109C109.5 12.3151 109.849 11.2292 110.547 10.4531C111.245 9.67188 112.214 9.28125 113.453 9.28125C114.651 9.28125 115.602 9.67969 116.305 10.4766C117.013 11.2734 117.367 12.3516 117.367 13.7109ZM110.844 13.7109C110.844 14.8047 111.062 15.638 111.5 16.2109C111.938 16.7839 112.581 17.0703 113.43 17.0703C114.279 17.0703 114.922 16.7865 115.359 16.2188C115.802 15.6458 116.023 14.8099 116.023 13.7109C116.023 12.6224 115.802 11.7969 115.359 11.2344C114.922 10.6667 114.273 10.3828 113.414 10.3828C112.565 10.3828 111.924 10.6615 111.492 11.2188C111.06 11.776 110.844 12.6068 110.844 13.7109Z" fill="white"/>
<path d="M104.148 9.29688C105.273 9.29688 106.146 9.68229 106.766 10.4531C107.391 11.2188 107.703 12.3047 107.703 13.7109C107.703 15.1172 107.388 16.2109 106.758 16.9922C106.133 17.7682 105.263 18.1562 104.148 18.1562C103.591 18.1562 103.081 18.0547 102.617 17.8516C102.159 17.6432 101.773 17.3255 101.461 16.8984H101.367L101.094 18H100.164V5.84375H101.461V8.79688C101.461 9.45833 101.44 10.0521 101.398 10.5781H101.461C102.065 9.72396 102.961 9.29688 104.148 9.29688ZM103.961 10.3828C103.076 10.3828 102.438 10.638 102.047 11.1484C101.656 11.6536 101.461 12.5078 101.461 13.7109C101.461 14.9141 101.661 15.776 102.062 16.2969C102.464 16.8125 103.107 17.0703 103.992 17.0703C104.789 17.0703 105.383 16.7812 105.773 16.2031C106.164 15.6198 106.359 14.7839 106.359 13.6953C106.359 12.5807 106.164 11.75 105.773 11.2031C105.383 10.6562 104.779 10.3828 103.961 10.3828Z" fill="white"/>
<path d="M96.5234 18L96.2656 16.7812H96.2031C95.776 17.3177 95.349 17.6823 94.9219 17.875C94.5 18.0625 93.9714 18.1562 93.3359 18.1562C92.487 18.1562 91.8203 17.9375 91.3359 17.5C90.8568 17.0625 90.6172 16.4401 90.6172 15.6328C90.6172 13.9036 92 12.9974 94.7656 12.9141L96.2188 12.8672V12.3359C96.2188 11.6641 96.0729 11.1693 95.7812 10.8516C95.4948 10.5286 95.0339 10.3672 94.3984 10.3672C93.6849 10.3672 92.8776 10.5859 91.9766 11.0234L91.5781 10.0312C92 9.80208 92.4609 9.6224 92.9609 9.49219C93.4661 9.36198 93.9714 9.29688 94.4766 9.29688C95.4974 9.29688 96.2526 9.52344 96.7422 9.97656C97.237 10.4297 97.4844 11.1562 97.4844 12.1562V18H96.5234ZM93.5938 17.0859C94.401 17.0859 95.0339 16.8646 95.4922 16.4219C95.9557 15.9792 96.1875 15.3594 96.1875 14.5625V13.7891L94.8906 13.8438C93.8594 13.8802 93.1146 14.0417 92.6562 14.3281C92.2031 14.6094 91.9766 15.0495 91.9766 15.6484C91.9766 16.1172 92.1172 16.474 92.3984 16.7188C92.6849 16.9635 93.0833 17.0859 93.5938 17.0859Z" fill="white"/>
<path d="M81.7344 18.1562C80.4688 18.1562 79.4688 17.7708 78.7344 17C78.0052 16.2292 77.6406 15.1589 77.6406 13.7891C77.6406 12.4089 77.9792 11.3125 78.6562 10.5C79.3385 9.6875 80.2526 9.28125 81.3984 9.28125C82.4714 9.28125 83.3203 9.63542 83.9453 10.3438C84.5703 11.0469 84.8828 11.9766 84.8828 13.1328V13.9531H78.9844C79.0104 14.9583 79.263 15.7214 79.7422 16.2422C80.2266 16.763 80.9062 17.0234 81.7812 17.0234C82.7031 17.0234 83.6146 16.8307 84.5156 16.4453V17.6016C84.0573 17.7995 83.6224 17.9401 83.2109 18.0234C82.8047 18.112 82.3125 18.1562 81.7344 18.1562ZM81.3828 10.3672C80.6953 10.3672 80.1458 10.5911 79.7344 11.0391C79.3281 11.487 79.0885 12.1068 79.0156 12.8984H83.4922C83.4922 12.0807 83.3099 11.4557 82.9453 11.0234C82.5807 10.5859 82.0599 10.3672 81.3828 10.3672Z" fill="white"/>
<path d="M75.4922 9.28125C75.8724 9.28125 76.2135 9.3125 76.5156 9.375L76.3359 10.5781C75.9818 10.5 75.6693 10.4609 75.3984 10.4609C74.7057 10.4609 74.112 10.7422 73.6172 11.3047C73.1276 11.8672 72.8828 12.5677 72.8828 13.4062V18H71.5859V9.4375H72.6562L72.8047 11.0234H72.8672C73.1849 10.4661 73.5677 10.0365 74.0156 9.73438C74.4635 9.43229 74.9557 9.28125 75.4922 9.28125Z" fill="white"/>
<path d="M69.3047 13.7109C69.3047 15.1068 68.9531 16.1979 68.25 16.9844C67.5469 17.7656 66.5755 18.1562 65.3359 18.1562C64.5703 18.1562 63.8906 17.9766 63.2969 17.6172C62.7031 17.2578 62.2448 16.7422 61.9219 16.0703C61.599 15.3984 61.4375 14.612 61.4375 13.7109C61.4375 12.3151 61.7865 11.2292 62.4844 10.4531C63.1823 9.67188 64.151 9.28125 65.3906 9.28125C66.5885 9.28125 67.5391 9.67969 68.2422 10.4766C68.9505 11.2734 69.3047 12.3516 69.3047 13.7109ZM62.7812 13.7109C62.7812 14.8047 63 15.638 63.4375 16.2109C63.875 16.7839 64.5182 17.0703 65.3672 17.0703C66.2161 17.0703 66.8594 16.7865 67.2969 16.2188C67.7396 15.6458 67.9609 14.8099 67.9609 13.7109C67.9609 12.6224 67.7396 11.7969 67.2969 11.2344C66.8594 10.6667 66.2109 10.3828 65.3516 10.3828C64.5026 10.3828 63.862 10.6615 63.4297 11.2188C62.9974 11.776 62.7812 12.6068 62.7812 13.7109Z" fill="white"/>
<path d="M57.9375 18V12.4297C57.9375 11.7474 57.7917 11.237 57.5 10.8984C57.2083 10.5547 56.7552 10.3828 56.1406 10.3828C55.3333 10.3828 54.737 10.6146 54.3516 11.0781C53.9661 11.5417 53.7734 12.2552 53.7734 13.2188V18H52.4766V12.4297C52.4766 11.7474 52.3307 11.237 52.0391 10.8984C51.7474 10.5547 51.2917 10.3828 50.6719 10.3828C49.8594 10.3828 49.263 10.6276 48.8828 11.1172C48.5078 11.6016 48.3203 12.3984 48.3203 13.5078V18H47.0234V9.4375H48.0781L48.2891 10.6094H48.3516C48.5964 10.1927 48.9401 9.86719 49.3828 9.63281C49.8307 9.39844 50.3307 9.28125 50.8828 9.28125C52.2214 9.28125 53.0964 9.76562 53.5078 10.7344H53.5703C53.8255 10.2865 54.1953 9.93229 54.6797 9.67188C55.1641 9.41146 55.7161 9.28125 56.3359 9.28125C57.3047 9.28125 58.0286 9.53125 58.5078 10.0312C58.9922 10.526 59.2344 11.3203 59.2344 12.4141V18H57.9375Z" fill="white"/>
<path d="M38.8984 18V12.4609C38.8984 11.763 38.7396 11.2422 38.4219 10.8984C38.1042 10.5547 37.6068 10.3828 36.9297 10.3828C36.0339 10.3828 35.3776 10.625 34.9609 11.1094C34.5443 11.5938 34.3359 12.3932 34.3359 13.5078V18H33.0391V9.4375H34.0938L34.3047 10.6094H34.3672C34.6328 10.1875 35.0052 9.86198 35.4844 9.63281C35.9635 9.39844 36.4974 9.28125 37.0859 9.28125C38.1172 9.28125 38.8932 9.53125 39.4141 10.0312C39.9349 10.526 40.1953 11.3203 40.1953 12.4141V18H38.8984Z" fill="white"/>
<path d="M30.4141 9.28125C30.7943 9.28125 31.1354 9.3125 31.4375 9.375L31.2578 10.5781C30.9036 10.5 30.5911 10.4609 30.3203 10.4609C29.6276 10.4609 29.0339 10.7422 28.5391 11.3047C28.0495 11.8672 27.8047 12.5677 27.8047 13.4062V18H26.5078V9.4375H27.5781L27.7266 11.0234H27.7891C28.1068 10.4661 28.4896 10.0365 28.9375 9.73438C29.3854 9.43229 29.8776 9.28125 30.4141 9.28125Z" fill="white"/>
<path d="M22.8672 18L22.6094 16.7812H22.5469C22.1198 17.3177 21.6927 17.6823 21.2656 17.875C20.8438 18.0625 20.3151 18.1562 19.6797 18.1562C18.8307 18.1562 18.1641 17.9375 17.6797 17.5C17.2005 17.0625 16.9609 16.4401 16.9609 15.6328C16.9609 13.9036 18.3438 12.9974 21.1094 12.9141L22.5625 12.8672V12.3359C22.5625 11.6641 22.4167 11.1693 22.125 10.8516C21.8385 10.5286 21.3776 10.3672 20.7422 10.3672C20.0286 10.3672 19.2214 10.5859 18.3203 11.0234L17.9219 10.0312C18.3438 9.80208 18.8047 9.6224 19.3047 9.49219C19.8099 9.36198 20.3151 9.29688 20.8203 9.29688C21.8411 9.29688 22.5964 9.52344 23.0859 9.97656C23.5807 10.4297 23.8281 11.1562 23.8281 12.1562V18H22.8672ZM19.9375 17.0859C20.7448 17.0859 21.3776 16.8646 21.8359 16.4219C22.2995 15.9792 22.5312 15.3594 22.5312 14.5625V13.7891L21.2344 13.8438C20.2031 13.8802 19.4583 14.0417 19 14.3281C18.5469 14.6094 18.3203 15.0495 18.3203 15.6484C18.3203 16.1172 18.4609 16.474 18.7422 16.7188C19.0286 16.9635 19.4271 17.0859 19.9375 17.0859Z" fill="white"/>
<path d="M12.2344 18.1562C10.9688 18.1562 9.96875 17.7708 9.23438 17C8.50521 16.2292 8.14062 15.1589 8.14062 13.7891C8.14062 12.4089 8.47917 11.3125 9.15625 10.5C9.83854 9.6875 10.7526 9.28125 11.8984 9.28125C12.9714 9.28125 13.8203 9.63542 14.4453 10.3438C15.0703 11.0469 15.3828 11.9766 15.3828 13.1328V13.9531H9.48438C9.51042 14.9583 9.76302 15.7214 10.2422 16.2422C10.7266 16.763 11.4062 17.0234 12.2812 17.0234C13.2031 17.0234 14.1146 16.8307 15.0156 16.4453V17.6016C14.5573 17.7995 14.1224 17.9401 13.7109 18.0234C13.3047 18.112 12.8125 18.1562 12.2344 18.1562ZM11.8828 10.3672C11.1953 10.3672 10.6458 10.5911 10.2344 11.0391C9.82812 11.487 9.58854 12.1068 9.51562 12.8984H13.9922C13.9922 12.0807 13.8099 11.4557 13.4453 11.0234C13.0807 10.5859 12.5599 10.3672 11.8828 10.3672Z" fill="white"/>
<path d="M0.5 18V6.57812H1.82812V16.7969H6.86719V18H0.5Z" fill="white"/>
<path fill-rule="evenodd" clip-rule="evenodd" d="M149.349 0L162.938 0.607306L168.439 12.8297L160.677 24L147.015 23.1252L141.414 9.88237L149.349 0ZM159.311 7.04523L149.463 11.3475L157.883 17.8565L159.311 7.04523ZM158.171 4.88942L150.301 1.50108L148.648 8.62522L158.171 4.88942ZM156.176 19.4943L147.623 13.3873L147.83 21.6626L156.176 19.4943ZM167.073 12.8027L161.244 6.88869L159.706 18.261L167.073 12.8027ZM158.182 20.8245L150.968 22.7097L159.451 23.2528L158.182 20.8245ZM165.934 15.4858L159.619 20.1893L160.874 22.6411L165.934 15.4858ZM162.947 2.315L161.72 4.83252L166.286 9.47253L162.947 2.315ZM161.419 1.11028L153.402 0.784918L160.015 3.67694L161.419 1.11028ZM148.178 2.27448L142.564 9.36387L146.318 10.159L148.178 2.27448ZM146.091 11.5497L142.319 10.7511L146.255 20.0227L146.091 11.5497Z" fill="white"/>
<path fill-rule="evenodd" clip-rule="evenodd" d="M177.796 11.1542H177.34V7.09533H176.118V16.6203H177.34V12.1593H177.76L181.609 16.8579L182.539 16.0718L178.836 11.5927L181.992 7.58915L181.062 6.85791L177.796 11.1542ZM188.432 7.09525H187.21V16.6203H193.41V15.5232H188.432V7.09525ZM197.915 7.09525H203.843V8.19215H199.137V11.0444H203.023V12.1412H199.137V15.5233H203.843V16.6204H197.915V7.09525ZM211.942 7.09525H208.714V16.6201H209.936V12.543H211.705L214.13 16.8577L215.188 16.2178L212.854 12.3604C214.002 12.0129 214.787 10.8612 214.787 9.69127C214.787 7.84484 213.528 7.09525 211.942 7.09525ZM213.51 9.69127C213.51 10.7701 212.725 11.4464 211.541 11.4464H209.936V8.19215H211.904C212.999 8.19215 213.51 8.83209 213.51 9.69127ZM225.787 11.8664C225.787 12.6343 225.733 16.7843 222.413 16.7843C220.88 16.7843 219.038 15.6875 219.038 11.8664C219.038 8.06373 220.844 6.93034 222.413 6.93034C223.927 6.93034 225.787 8.02726 225.787 11.8664ZM220.315 11.8664C220.315 13.2558 220.57 15.6325 222.413 15.6325C224.255 15.6325 224.511 13.2558 224.511 11.8664C224.511 10.4588 224.255 8.0821 222.413 8.0821C220.57 8.0821 220.315 10.4588 220.315 11.8664ZM233.448 15.6325C232.171 15.6325 231.606 14.7735 231.368 13.6033L230.274 13.9505C230.566 15.6506 231.679 16.7842 233.448 16.7842C235.199 16.7842 236.458 15.7603 236.458 13.9505C236.458 12.9634 236.002 12.1955 235.144 11.7201L233.12 10.8243C232.39 10.4954 231.843 10.2394 231.843 9.34345C231.843 8.48441 232.609 8.0821 233.393 8.0821C234.433 8.0821 234.926 8.74027 235.144 9.67253L236.312 9.32521C235.929 7.84448 234.998 6.93034 233.411 6.93034C231.916 6.93034 230.621 7.82624 230.621 9.43491C230.621 11.0689 231.713 11.5168 232.957 12.0268C233.077 12.076 233.198 12.1258 233.32 12.1773C233.396 12.2087 233.473 12.2395 233.549 12.2702C234.405 12.6149 235.236 12.9494 235.236 14.0237C235.236 15.0842 234.451 15.6325 233.448 15.6325Z" fill="white"/>
</svg>
