<svg width="16" height="16" viewBox="0 0 16 16" fill="none" xmlns="http://www.w3.org/2000/svg">
<path d="M0.571429 3.29166H15.4286C15.7442 3.29166 16 3.03051 16 2.70833V1.25C16 0.927815 15.7442 0.666664 15.4286 0.666664H0.571429C0.255821 0.666664 0 0.927815 0 1.25V2.70833C0 3.03051 0.255821 3.29166 0.571429 3.29166ZM0.571429 9.125H15.4286C15.7442 9.125 16 8.86385 16 8.54166V7.08333C16 6.76115 15.7442 6.5 15.4286 6.5H0.571429C0.255821 6.5 0 6.76115 0 7.08333V8.54166C0 8.86385 0.255821 9.125 0.571429 9.125ZM0.571429 14.9583H15.4286C15.7442 14.9583 16 14.6972 16 14.375V12.9167C16 12.5945 15.7442 12.3333 15.4286 12.3333H0.571429C0.255821 12.3333 0 12.5945 0 12.9167V14.375C0 14.6972 0.255821 14.9583 0.571429 14.9583Z" fill="white"/>
</svg>
