<svg width="16" height="16" viewBox="0 0 16 16" fill="none" xmlns="http://www.w3.org/2000/svg">
<path d="M1 13.6875C1 14.2406 1.44687 14.6875 2 14.6875H7V9.6875H1V13.6875ZM9 14.6875H14C14.5531 14.6875 15 14.2406 15 13.6875V9.6875H9V14.6875ZM15 4.6875H13.6844C13.8781 4.30938 14 3.89062 14 3.4375C14 1.92188 12.7656 0.6875 11.25 0.6875C9.95 0.6875 9.10938 1.35313 8.03125 2.82188C6.95312 1.35313 6.1125 0.6875 4.8125 0.6875C3.29688 0.6875 2.0625 1.92188 2.0625 3.4375C2.0625 3.89062 2.18125 4.30938 2.37812 4.6875H1C0.446875 4.6875 0 5.13438 0 5.6875V8.1875C0 8.4625 0.225 8.6875 0.5 8.6875H15.5C15.775 8.6875 16 8.4625 16 8.1875V5.6875C16 5.13438 15.5531 4.6875 15 4.6875ZM4.80937 4.6875C4.11875 4.6875 3.55938 4.12812 3.55938 3.4375C3.55938 2.74688 4.11875 2.1875 4.80937 2.1875C5.43125 2.1875 5.89062 2.29063 7.5 4.6875H4.80937ZM11.25 4.6875H8.55937C10.1656 2.29688 10.6125 2.1875 11.25 2.1875C11.9406 2.1875 12.5 2.74688 12.5 3.4375C12.5 4.12812 11.9406 4.6875 11.25 4.6875Z" fill="#DAF0FF"/>
</svg>
