<svg width="16" height="17" viewBox="0 0 16 17" fill="none" xmlns="http://www.w3.org/2000/svg">
<path d="M1 14.1875C1 14.7406 1.44687 15.1875 2 15.1875H7V10.1875H1V14.1875ZM9 15.1875H14C14.5531 15.1875 15 14.7406 15 14.1875V10.1875H9V15.1875ZM15 5.1875H13.6844C13.8781 4.80938 14 4.39062 14 3.9375C14 2.42188 12.7656 1.1875 11.25 1.1875C9.95 1.1875 9.10938 1.85313 8.03125 3.32188C6.95312 1.85313 6.1125 1.1875 4.8125 1.1875C3.29688 1.1875 2.0625 2.42188 2.0625 3.9375C2.0625 4.39062 2.18125 4.80938 2.37812 5.1875H1C0.446875 5.1875 0 5.63438 0 6.1875V8.6875C0 8.9625 0.225 9.1875 0.5 9.1875H15.5C15.775 9.1875 16 8.9625 16 8.6875V6.1875C16 5.63438 15.5531 5.1875 15 5.1875ZM4.80937 5.1875C4.11875 5.1875 3.55938 4.62812 3.55938 3.9375C3.55938 3.24688 4.11875 2.6875 4.80937 2.6875C5.43125 2.6875 5.89062 2.79063 7.5 5.1875H4.80937ZM11.25 5.1875H8.55937C10.1656 2.79688 10.6125 2.6875 11.25 2.6875C11.9406 2.6875 12.5 3.24688 12.5 3.9375C12.5 4.62812 11.9406 5.1875 11.25 5.1875Z" fill="#1B003F"/>
</svg>
